<svg width="47" height="47" viewBox="0 0 47 47" fill="none" xmlns="http://www.w3.org/2000/svg">
<path d="M21.2099 1.94979C21.894 -0.369896 25.181 -0.365991 25.8595 1.95531L29.4004 14.0707C29.702 15.1028 30.6478 15.8126 31.7231 15.8139L43.7123 15.8281C45.9995 15.8308 47.0095 18.7098 45.2253 20.1409L35.1072 28.2571C34.3421 28.8708 34.0225 29.8853 34.2977 30.8267L38.0415 43.6362C38.7069 45.9132 36.0422 47.6911 34.1953 46.2023L25.0085 38.797C24.1227 38.083 22.8594 38.0815 21.9719 38.7934L12.7672 46.1768C10.9167 47.6612 8.25629 45.877 8.92728 43.6016L12.702 30.8011C12.9795 29.8603 12.6623 28.845 11.8986 28.2294L1.80018 20.0893C0.0194448 18.6539 1.03641 15.7774 3.32367 15.7801L15.3129 15.7943C16.3881 15.7956 17.3356 15.0881 17.6397 14.0567L21.2099 1.94979Z" fill="#FFD84F"/>
</svg>
