<svg width="72" height="72" viewBox="0 0 72 72" fill="none" xmlns="http://www.w3.org/2000/svg">
<path d="M32.7276 22.9094C32.7276 21.102 34.1928 19.6367 36.0004 19.6367C37.8079 19.6367 39.2731 21.102 39.2731 22.9094V32.7276H49.0913C50.8988 32.7276 52.364 34.1928 52.364 36.0004C52.364 37.8079 50.8988 39.2731 49.0913 39.2731H39.2731V49.0913C39.2731 50.8988 37.8079 52.364 36.0004 52.364C34.1928 52.364 32.7276 50.8988 32.7276 49.0913V39.2731H22.9094C21.102 39.2731 19.6367 37.8079 19.6367 36.0004C19.6367 34.1928 21.102 32.7276 22.9094 32.7276H32.7276V22.9094Z" fill="black"/>
<path fill-rule="evenodd" clip-rule="evenodd" d="M72 36C72 55.8821 55.8821 72 36 72C16.1178 72 0 55.8821 0 36C0 16.1178 16.1178 0 36 0C55.8821 0 72 16.1178 72 36ZM6.56781 36C6.56781 52.255 19.7451 65.4323 36 65.4323C52.255 65.4323 65.4323 52.255 65.4323 36C65.4323 19.7451 52.255 6.56781 36 6.56781C19.7451 6.56781 6.56781 19.7451 6.56781 36Z" fill="black"/>
</svg>
