<svg width="858" height="303" viewBox="0 0 858 303" fill="none" xmlns="http://www.w3.org/2000/svg">
<ellipse cx="427.794" cy="138.404" rx="427.794" ry="138.404" fill="#E85F5C"/>
<path d="M814.732 167.174C814.732 167.174 813.048 227.243 775.397 261.279C737.745 295.315 678.384 290.428 678.384 290.428C678.384 290.428 680.067 230.359 717.719 196.323C755.37 162.287 814.732 167.174 814.732 167.174Z" fill="#A2D883"/>
<path d="M669.114 194.727C669.114 194.727 693.399 215.5 695.902 241.885C698.405 268.27 678.179 290.276 678.179 290.276C678.179 290.276 653.894 269.503 651.391 243.118C648.888 216.732 669.114 194.727 669.114 194.727Z" fill="#A2D883"/>
<path fill-rule="evenodd" clip-rule="evenodd" d="M83.4945 50.6791C114.312 14.9062 144.385 67.8204 98.3458 76.3909C144.385 85.3343 113.94 137.876 83.4945 102.102C99.0884 146.819 38.5685 146.446 54.1628 102.102C23.3457 137.876 -6.72858 85.3343 39.3111 76.3909C-7.09987 67.8204 23.3457 15.2788 54.1628 50.6791C38.1973 6.33557 99.0884 6.33557 83.4945 50.6791ZM68.6427 69.6836C72.3559 69.6836 75.6973 72.6647 75.6973 76.3909C75.6973 80.1172 72.3559 83.4711 68.6427 83.4711C64.93 83.4711 61.9595 80.1172 61.9595 76.3909C61.9595 72.6647 64.93 69.6836 68.6427 69.6836Z" fill="#F4CF90"/>
<path d="M91.277 164.429C90.5956 164.429 90.0381 164.212 89.6045 163.778C89.2329 163.283 89.109 162.663 89.2329 161.92L102.055 101.897C102.179 101.216 102.52 100.627 103.077 100.132C103.697 99.6364 104.347 99.3886 105.028 99.3886H123.24C123.921 99.3886 124.447 99.6364 124.819 100.132C125.253 100.627 125.408 101.216 125.284 101.897L121.103 121.409H136.155L140.336 101.897C140.46 101.216 140.8 100.627 141.358 100.132C141.977 99.6364 142.628 99.3886 143.309 99.3886H161.52C162.202 99.3886 162.728 99.6364 163.1 100.132C163.533 100.627 163.688 101.216 163.564 101.897L150.742 161.92C150.618 162.601 150.247 163.19 149.627 163.685C149.07 164.181 148.45 164.429 147.769 164.429H129.558C128.876 164.429 128.319 164.181 127.885 163.685C127.514 163.19 127.39 162.601 127.514 161.92L131.788 141.85H116.736L112.461 161.92C112.338 162.601 111.966 163.19 111.347 163.685C110.789 164.181 110.17 164.429 109.488 164.429H91.277ZM185.63 165.358C180.241 165.358 175.719 164.491 172.065 162.756C168.472 160.96 165.994 158.234 164.632 154.58C163.269 150.863 163.176 146.125 164.353 140.364C164.415 140.24 164.446 140.116 164.446 139.992C164.446 139.868 164.477 139.775 164.539 139.713C165.777 134.386 167.853 129.896 170.764 126.241C173.737 122.586 177.392 119.83 181.728 117.971C186.126 116.113 190.957 115.184 196.222 115.184C202.293 115.184 207.001 116.361 210.345 118.715C213.752 121.007 215.982 124.073 217.035 127.913C218.15 131.692 218.243 135.873 217.314 140.457L216.757 143.244C216.633 143.926 216.261 144.514 215.642 145.01C215.022 145.505 214.372 145.753 213.69 145.753H186.002C186.002 145.815 185.971 145.877 185.909 145.939C185.909 146.001 185.909 146.094 185.909 146.217C185.661 147.456 185.537 148.509 185.537 149.377C185.599 150.182 185.847 150.801 186.281 151.235C186.776 151.668 187.458 151.885 188.325 151.885C188.696 151.885 189.037 151.823 189.347 151.699C189.656 151.576 189.966 151.39 190.276 151.142C190.586 150.832 190.957 150.523 191.391 150.213C192.072 149.655 192.599 149.315 192.97 149.191C193.404 149.005 193.992 148.912 194.736 148.912H212.297C212.916 148.912 213.381 149.098 213.69 149.469C214 149.841 214.062 150.337 213.876 150.956C213.566 152.133 212.73 153.558 211.367 155.23C210.005 156.841 208.115 158.42 205.7 159.969C203.346 161.517 200.466 162.818 197.059 163.871C193.714 164.862 189.904 165.358 185.63 165.358ZM188.511 134.139H195.944V134.046C196.253 132.683 196.346 131.568 196.222 130.701C196.099 129.834 195.789 129.214 195.293 128.842C194.86 128.409 194.24 128.192 193.435 128.192C192.63 128.192 191.886 128.409 191.205 128.842C190.586 129.214 190.059 129.834 189.626 130.701C189.192 131.568 188.82 132.683 188.511 134.046V134.139ZM236.37 165.358C233.707 165.358 231.229 164.986 228.937 164.243C226.707 163.438 224.818 162.199 223.269 160.526C221.783 158.792 220.761 156.562 220.203 153.836C219.646 151.111 219.677 147.797 220.296 143.895C220.606 142.47 220.853 141.231 221.039 140.178C221.287 139.125 221.566 137.917 221.876 136.554C222.805 132.9 224.044 129.741 225.592 127.077C227.141 124.352 228.937 122.122 230.981 120.387C233.087 118.653 235.41 117.352 237.95 116.485C240.489 115.618 243.215 115.184 246.126 115.184C249.657 115.184 252.382 115.618 254.303 116.485C256.223 117.352 257.771 118.467 258.948 119.83L259.227 118.622C259.351 117.941 259.692 117.352 260.249 116.857C260.869 116.361 261.519 116.113 262.2 116.113H277.903C278.584 116.113 279.111 116.361 279.482 116.857C279.916 117.352 280.071 117.941 279.947 118.622L270.749 161.92C270.625 162.601 270.253 163.19 269.634 163.685C269.076 164.181 268.457 164.429 267.775 164.429H251.98C251.298 164.429 250.741 164.181 250.307 163.685C249.936 163.19 249.812 162.601 249.936 161.92L250.4 159.783C248.542 161.455 246.529 162.818 244.361 163.871C242.255 164.862 239.591 165.358 236.37 165.358ZM246.684 148.726C247.861 148.726 248.821 148.509 249.564 148.076C250.307 147.642 250.896 147.023 251.329 146.217C251.825 145.412 252.228 144.452 252.537 143.337C252.909 141.912 253.188 140.766 253.374 139.899C253.559 138.97 253.745 137.824 253.931 136.461C254.117 135.47 254.117 134.634 253.931 133.953C253.745 133.271 253.343 132.745 252.723 132.373C252.166 132.002 251.36 131.816 250.307 131.816C249.192 131.816 248.263 132.033 247.52 132.466C246.777 132.9 246.188 133.519 245.755 134.324C245.321 135.13 244.918 136.09 244.547 137.205C244.299 138.134 244.051 139.156 243.803 140.271C243.556 141.386 243.37 142.408 243.246 143.337C243.122 144.452 243.091 145.412 243.153 146.217C243.277 147.023 243.618 147.642 244.175 148.076C244.732 148.509 245.569 148.726 246.684 148.726ZM281.169 164.429C280.488 164.429 279.962 164.181 279.59 163.685C279.156 163.19 279.001 162.601 279.125 161.92L288.324 118.622C288.448 117.941 288.819 117.352 289.439 116.857C290.058 116.361 290.709 116.113 291.39 116.113H307.65C308.331 116.113 308.858 116.361 309.23 116.857C309.601 117.352 309.725 117.941 309.601 118.622L308.951 121.874C310.499 120.201 312.327 118.839 314.433 117.786C316.539 116.671 319.326 116.113 322.795 116.113H329.113C329.795 116.113 330.321 116.361 330.693 116.857C331.065 117.352 331.188 117.941 331.065 118.622L327.998 133.117C327.874 133.798 327.503 134.386 326.883 134.882C326.264 135.377 325.614 135.625 324.932 135.625H312.946C311.088 135.625 309.601 136.09 308.486 137.019C307.433 137.948 306.69 139.342 306.256 141.2L301.796 161.92C301.673 162.601 301.301 163.19 300.682 163.685C300.124 164.181 299.505 164.429 298.823 164.429H281.169ZM357.411 164.429C352.951 164.429 349.018 163.84 345.611 162.663C342.204 161.424 339.726 159.349 338.178 156.438C336.629 153.527 336.381 149.531 337.434 144.452L340.036 132.373H332.696C332.014 132.373 331.488 132.125 331.116 131.63C330.744 131.134 330.621 130.546 330.744 129.865L333.067 118.622C333.191 117.941 333.563 117.352 334.182 116.857C334.802 116.361 335.452 116.113 336.133 116.113H343.474L346.726 100.968C346.85 100.287 347.19 99.6983 347.748 99.2028C348.367 98.7072 349.018 98.4594 349.699 98.4594H365.959C366.64 98.4594 367.167 98.7072 367.539 99.2028C367.972 99.6983 368.127 100.287 368.003 100.968L364.751 116.113H376.458C377.14 116.113 377.666 116.361 378.038 116.857C378.41 117.352 378.533 117.941 378.41 118.622L376.087 129.865C375.963 130.546 375.591 131.134 374.972 131.63C374.352 132.125 373.702 132.373 373.021 132.373H361.313L359.083 142.594C358.898 143.523 358.867 144.359 358.99 145.103C359.114 145.784 359.424 146.31 359.92 146.682C360.477 147.054 361.22 147.24 362.15 147.24H370.605C371.286 147.24 371.813 147.487 372.184 147.983C372.556 148.478 372.68 149.067 372.556 149.748L369.954 161.92C369.83 162.601 369.459 163.19 368.839 163.685C368.282 164.181 367.662 164.429 366.981 164.429H357.411ZM381.782 182.082C381.039 182.082 380.512 181.742 380.202 181.06C379.955 180.441 380.048 179.822 380.481 179.202L391.724 161.363L382.711 118.994C382.587 118.25 382.773 117.6 383.269 117.042C383.826 116.423 384.6 116.113 385.592 116.113H400.365C401.294 116.113 401.914 116.361 402.223 116.857C402.595 117.352 402.812 117.848 402.874 118.343L406.497 139.528L419.319 118.343C419.629 117.786 420.063 117.29 420.62 116.857C421.24 116.361 422.014 116.113 422.943 116.113H439.389C440.256 116.113 440.783 116.454 440.969 117.135C441.154 117.755 441.092 118.374 440.783 118.994L401.666 179.853C401.356 180.41 400.891 180.906 400.272 181.339C399.653 181.835 398.878 182.082 397.949 182.082H381.782ZM482.924 165.358C476.668 165.358 471.433 164.429 467.221 162.57C463.071 160.712 460.098 157.894 458.301 154.115C456.505 150.337 456.102 145.567 457.094 139.806C457.527 137.267 458.054 134.51 458.673 131.537C459.354 128.564 460.005 125.745 460.624 123.082C461.987 117.569 464.372 113.016 467.779 109.423C471.248 105.769 475.491 103.043 480.508 101.247C485.525 99.3886 491.069 98.4594 497.14 98.4594C502.033 98.4594 506.307 99.0169 509.962 100.132C513.678 101.185 516.714 102.672 519.068 104.592C521.421 106.512 523.063 108.742 523.992 111.282C524.983 113.759 525.231 116.392 524.735 119.179C524.611 119.737 524.302 120.232 523.806 120.666C523.311 121.038 522.784 121.223 522.227 121.223H501.693C501.011 121.223 500.485 121.131 500.113 120.945C499.741 120.759 499.432 120.511 499.184 120.201C499.06 119.892 498.812 119.458 498.441 118.901C498.131 118.281 497.573 117.755 496.768 117.321C496.025 116.826 494.879 116.578 493.33 116.578C491.038 116.578 489.149 117.166 487.662 118.343C486.238 119.458 485.247 121.193 484.689 123.546C484.07 126.086 483.481 128.688 482.924 131.351C482.366 134.015 481.84 136.678 481.344 139.342C480.849 142.129 481.127 144.142 482.18 145.381C483.234 146.62 484.906 147.24 487.198 147.24C488.746 147.24 490.14 147.023 491.379 146.589C492.68 146.156 493.764 145.443 494.631 144.452C495.56 143.461 496.18 142.191 496.489 140.643V140.55H492.122C491.441 140.55 490.914 140.302 490.543 139.806C490.171 139.311 490.047 138.722 490.171 138.041L492.308 127.727C492.432 127.046 492.804 126.458 493.423 125.962C494.043 125.467 494.693 125.219 495.374 125.219H520.926C521.607 125.219 522.134 125.467 522.505 125.962C522.877 126.458 523.001 127.046 522.877 127.727L520.368 139.806C519.253 145.381 516.9 150.058 513.307 153.836C509.776 157.615 505.378 160.495 500.113 162.478C494.91 164.398 489.18 165.358 482.924 165.358ZM523.8 164.429C523.118 164.429 522.592 164.181 522.22 163.685C521.786 163.19 521.632 162.601 521.756 161.92L530.954 118.622C531.078 117.941 531.45 117.352 532.069 116.857C532.688 116.361 533.339 116.113 534.02 116.113H550.28C550.962 116.113 551.488 116.361 551.86 116.857C552.231 117.352 552.355 117.941 552.231 118.622L551.581 121.874C553.13 120.201 554.957 118.839 557.063 117.786C559.169 116.671 561.957 116.113 565.425 116.113H571.743C572.425 116.113 572.951 116.361 573.323 116.857C573.695 117.352 573.819 117.941 573.695 118.622L570.629 133.117C570.505 133.798 570.133 134.386 569.514 134.882C568.894 135.377 568.244 135.625 567.562 135.625H555.576C553.718 135.625 552.231 136.09 551.116 137.019C550.063 137.948 549.32 139.342 548.887 141.2L544.427 161.92C544.303 162.601 543.931 163.19 543.312 163.685C542.754 164.181 542.135 164.429 541.453 164.429H523.8ZM587.59 165.358C584.493 165.358 581.644 164.615 579.042 163.128C576.441 161.641 574.551 159.349 573.375 156.252C572.198 153.155 572.136 149.16 573.189 144.266L578.578 118.622C578.702 117.941 579.073 117.352 579.693 116.857C580.312 116.361 580.963 116.113 581.644 116.113H599.391C600.072 116.113 600.598 116.361 600.97 116.857C601.342 117.352 601.466 117.941 601.342 118.622L596.046 143.616C595.798 144.731 595.767 145.66 595.953 146.403C596.139 147.147 596.541 147.735 597.161 148.169C597.78 148.54 598.585 148.726 599.576 148.726C601.063 148.726 602.302 148.293 603.293 147.425C604.284 146.558 604.965 145.288 605.337 143.616L610.633 118.622C610.757 117.941 611.129 117.352 611.748 116.857C612.368 116.361 613.018 116.113 613.699 116.113H631.353C632.035 116.113 632.561 116.361 632.933 116.857C633.304 117.352 633.428 117.941 633.304 118.622L624.106 161.92C623.982 162.601 623.61 163.19 622.991 163.685C622.433 164.181 621.814 164.429 621.133 164.429H604.873C604.191 164.429 603.634 164.181 603.2 163.685C602.828 163.19 602.705 162.601 602.828 161.92L603.479 158.854C602.178 160.34 600.753 161.579 599.205 162.57C597.718 163.5 596.046 164.181 594.187 164.615C592.329 165.11 590.13 165.358 587.59 165.358ZM667.204 165.358C663.983 165.358 661.196 164.862 658.842 163.871C656.55 162.818 654.847 161.455 653.732 159.783L653.267 161.92C653.143 162.601 652.772 163.19 652.152 163.685C651.595 164.181 650.975 164.429 650.294 164.429H634.498C633.817 164.429 633.291 164.181 632.919 163.685C632.485 163.19 632.33 162.601 632.454 161.92L645.462 100.968C645.586 100.287 645.927 99.6983 646.484 99.2028C647.104 98.7072 647.754 98.4594 648.436 98.4594H665.625C666.306 98.4594 666.833 98.7072 667.204 99.2028C667.638 99.6983 667.793 100.287 667.669 100.968L663.674 119.551C665.47 118.188 667.328 117.135 669.248 116.392C671.169 115.587 673.43 115.184 676.031 115.184C678.757 115.184 681.234 115.618 683.464 116.485C685.694 117.352 687.553 118.653 689.039 120.387C690.588 122.122 691.641 124.352 692.198 127.077C692.818 129.741 692.787 132.9 692.105 136.554C691.858 137.917 691.61 139.125 691.362 140.178C691.176 141.231 690.898 142.47 690.526 143.895C689.225 149.036 687.429 153.186 685.137 156.345C682.845 159.504 680.181 161.796 677.146 163.221C674.111 164.646 670.797 165.358 667.204 165.358ZM662.094 148.726C663.271 148.726 664.2 148.509 664.882 148.076C665.625 147.642 666.213 147.023 666.647 146.217C667.142 145.412 667.576 144.452 667.948 143.337C668.257 142.408 668.536 141.386 668.784 140.271C669.032 139.156 669.187 138.134 669.248 137.205C669.372 136.09 669.372 135.13 669.248 134.324C669.125 133.519 668.784 132.9 668.226 132.466C667.731 132.033 666.895 131.816 665.718 131.816C664.665 131.816 663.767 132.002 663.023 132.373C662.28 132.745 661.66 133.271 661.165 133.953C660.731 134.634 660.36 135.47 660.05 136.461C659.678 137.824 659.4 138.97 659.214 139.899C659.028 140.766 658.842 141.912 658.656 143.337C658.47 144.452 658.439 145.412 658.563 146.217C658.687 147.023 659.028 147.642 659.585 148.076C660.143 148.509 660.979 148.726 662.094 148.726ZM707.017 102.083C707.326 101.216 707.884 100.411 708.689 99.6673C709.494 98.8621 710.517 98.4594 711.755 98.4594H727.551C728.356 98.4594 728.852 98.7692 729.037 99.3886C729.285 100.008 729.254 100.596 728.945 101.154L715.286 123.639C714.914 124.259 714.357 124.909 713.614 125.59C712.932 126.272 711.972 126.613 710.733 126.613H700.42C699.924 126.613 699.491 126.396 699.119 125.962C698.747 125.467 698.654 124.94 698.84 124.383L707.017 102.083ZM741.883 165.358C737.423 165.358 733.706 164.924 730.733 164.057C727.822 163.128 725.53 161.982 723.858 160.619C722.247 159.195 721.132 157.739 720.513 156.252C719.893 154.704 719.676 153.31 719.862 152.071C719.986 151.39 720.327 150.801 720.884 150.306C721.442 149.81 722.03 149.562 722.65 149.562H738.817C738.879 149.562 738.941 149.562 739.003 149.562C739.065 149.562 739.126 149.562 739.188 149.562C739.994 149.624 740.675 149.903 741.233 150.399C741.79 150.832 742.378 151.266 742.998 151.699C743.617 152.133 744.392 152.35 745.321 152.35C745.816 152.35 746.312 152.226 746.807 151.978C747.365 151.73 747.675 151.39 747.737 150.956C747.86 150.399 747.798 149.903 747.551 149.469C747.303 149.036 746.56 148.602 745.321 148.169C744.082 147.673 741.976 147.147 739.003 146.589C736.277 146.032 733.737 145.164 731.384 143.988C729.03 142.811 727.264 141.169 726.087 139.063C724.911 136.957 724.663 134.293 725.344 131.072C725.902 128.409 727.326 125.869 729.618 123.453C731.91 121.038 734.976 119.055 738.817 117.507C742.657 115.958 747.117 115.184 752.196 115.184C756.037 115.184 759.351 115.618 762.138 116.485C764.926 117.352 767.218 118.467 769.014 119.83C770.81 121.193 772.08 122.648 772.823 124.197C773.629 125.745 773.907 127.17 773.66 128.471C773.598 129.152 773.288 129.741 772.731 130.236C772.235 130.732 771.708 130.98 771.151 130.98H756.47C756.347 130.98 756.192 130.98 756.006 130.98C755.82 130.98 755.665 130.98 755.541 130.98C754.674 130.98 753.931 130.763 753.311 130.329C752.754 129.834 752.165 129.369 751.546 128.935C750.989 128.44 750.245 128.192 749.316 128.192C748.882 128.192 748.449 128.347 748.015 128.657C747.582 128.904 747.303 129.245 747.179 129.679C747.055 130.174 747.117 130.67 747.365 131.165C747.675 131.599 748.48 132.033 749.781 132.466C751.143 132.838 753.373 133.271 756.47 133.767C760.807 134.386 764.12 135.532 766.412 137.205C768.704 138.877 770.191 140.797 770.872 142.965C771.616 145.133 771.77 147.271 771.337 149.377C770.655 152.66 769.045 155.509 766.505 157.925C763.966 160.34 760.621 162.199 756.47 163.5C752.32 164.738 747.458 165.358 741.883 165.358Z" fill="white"/>
<path d="M823.362 36.1196C823.598 34.5108 825.104 34.6161 825.114 36.2421L825.198 49.8832C825.306 67.4975 833.202 81.9313 844.297 84.7962L852.889 87.0148C853.913 87.2795 853.749 89.6265 852.698 89.746L843.881 90.7473C832.495 92.0403 822.667 105.235 820.109 122.662L818.127 136.159C817.891 137.768 816.385 137.663 816.375 136.036L816.291 122.395C816.182 104.781 808.287 90.3475 797.192 87.4826L788.6 85.2639C787.576 84.9993 787.74 82.6522 788.791 82.5327L797.608 81.5314C808.993 80.2384 818.821 67.0441 821.38 49.6163L823.362 36.1196Z" fill="#F2994A"/>
</svg>
